<?xml version="1.0" encoding="UTF-8" standalone="no"?><!DOCTYPE svg PUBLIC "-//W3C//DTD SVG 1.1//EN" "http://www.w3.org/Graphics/SVG/1.1/DTD/svg11.dtd"><svg width="100%" height="100%" viewBox="0 0 1280 400" version="1.1" xmlns="http://www.w3.org/2000/svg" xmlns:xlink="http://www.w3.org/1999/xlink" xml:space="preserve" xmlns:serif="http://www.serif.com/" style="fill-rule:evenodd;clip-rule:evenodd;stroke-linejoin:round;stroke-miterlimit:2;"><g><path d="M291.038,350.471l-151.538,-0c-24.312,-5.071 -45.05,-14.226 -62.213,-27.468c-101.8,-78.518 -68.396,-241.547 59.204,-269.014c10.797,-2.317 25.333,-3.402 43.609,-3.256c35.091,0.274 71.578,0.301 109.461,0.082c0.87,0 1.586,0.716 1.586,1.587l0,101.663c0,0.985 -0.492,1.478 -1.477,1.478c-38.685,-0 -75.354,-0.009 -110.008,-0.028c-8.645,0 -16.451,2.335 -23.419,7.004c-40.326,27.057 -21.421,85.933 26.346,86.015c37.937,0.054 73.558,0.045 106.862,-0.028c1.076,0 1.614,0.529 1.614,1.587l-0.027,100.378Z" style="fill:#bd1622;fill-rule:nonzero;"/><path d="M426.434,350.471l-92.225,-0l0.055,-295.607c0,-2.517 1.259,-3.785 3.776,-3.803c45.469,-0.219 87.774,-0.301 126.915,-0.246c71.131,0.109 132.442,30.039 134.849,109.707c0.292,9.977 -0.611,19.361 -2.708,28.152c-10.415,43.554 -38.567,71.104 -84.456,82.649c-27.166,6.84 -55.4,5.581 -83.99,5.28c-1.331,0 -1.997,0.657 -1.997,1.97l-0.219,71.898Zm0.52,-221.493l-0.273,73.211c-0,0.3 0.247,0.547 0.547,0.547l44.183,0.137c0.006,-0 0.011,-0 0.017,-0c20.243,0.07 36.956,-15.44 37.027,-34.362l-0,-5.308c0.054,-18.912 -16.538,-34.529 -36.77,-34.608l-44.184,-0.164c-0.3,-0 -0.547,0.247 -0.547,0.547Z" style="fill:#575756;fill-rule:nonzero;"/><path d="M910.184,350.471l-98.845,-0l-46.072,-72.281c-0.627,-0.987 -1.723,-1.586 -2.9,-1.587l-33.185,0.028c-0.488,-0 -0.955,0.209 -1.286,0.574c-1.022,1.095 -1.277,1.943 -0.766,2.545c0.51,0.601 0.766,1.295 0.766,2.079c0.018,21.54 -0.064,42.925 -0.246,64.155c-0.019,0.219 -0.01,0.429 0.027,0.629c0.036,0.31 0.182,0.547 0.438,0.712c0.26,0.184 0.415,0.484 0.415,0.803c-0,0.307 -0.144,0.597 -0.388,0.783l-2.161,1.56l-90.693,-0l-0.082,-296.893c-0,-1.641 0.82,-2.471 2.462,-2.489c41.931,-0.274 85.267,-0.31 130.007,-0.11c42.022,0.192 89.544,11.463 114.412,47.905c21.559,31.598 23.419,76.822 11.299,111.157c-7.186,20.354 -20.701,36.742 -40.545,49.162c-0.82,0.511 -0.948,1.168 -0.383,1.97c18.805,26.684 37.609,53.422 56.413,80.215c2.061,2.955 2.499,5.982 1.313,9.083Zm-182.097,-151.839l-0.574,0.493c-0.229,0.191 -0.406,0.431 -0.519,0.701c-0.421,1.011 0.156,2.228 1.279,2.695c0.298,0.125 0.618,0.189 0.936,0.187c9.794,-0.182 19.899,-0.109 30.313,0.219c12.676,0.383 22.47,-0.83 29.383,-3.638c14.08,-5.727 20.728,-17.947 19.944,-36.66c-0.957,-23.447 -19.151,-33.405 -40.572,-34.089c-13.023,-0.419 -25.991,-0.529 -38.904,-0.328c-1.003,0.018 -1.505,0.529 -1.505,1.532c0.037,21.85 0.01,43.873 -0.082,66.07c0,0.274 0.11,0.502 0.329,0.684c0.346,0.255 0.483,0.693 0.41,1.313c-0.036,0.329 -0.182,0.602 -0.438,0.821Z" style="fill:#1d1d1b;fill-rule:nonzero;"/><g><path d="M988.866,130.54c-0.798,4.392 -2.37,7.482 -4.716,9.271c-2.345,1.79 -5.414,2.684 -9.206,2.684c-2.894,0 -5.402,-0.61 -7.522,-1.83c-2.121,-1.22 -3.68,-2.928 -4.678,-5.124c-0.4,-0.772 -0.736,-1.585 -1.011,-2.439c-0.274,-0.854 -0.524,-1.79 -0.748,-2.806c-0.225,-1.017 -0.412,-2.156 -0.562,-3.416c-0.149,-1.261 -0.299,-2.725 -0.449,-4.392c-0.1,-0.935 -0.162,-1.901 -0.187,-2.897c-0.025,-0.997 -0.037,-1.739 -0.037,-2.227c-0,-0.447 0.012,-1.108 0.037,-1.982c0.025,-0.875 0.063,-1.657 0.112,-2.349c0.25,-3.456 0.562,-6.221 0.936,-8.295c0.374,-2.074 0.911,-3.782 1.609,-5.124c1.048,-2.074 2.558,-3.721 4.529,-4.941c1.971,-1.22 4.578,-1.83 7.821,-1.83c1.996,0 3.805,0.285 5.427,0.854c1.622,0.569 3.019,1.342 4.191,2.318c1.173,0.976 2.096,2.115 2.77,3.416c0.674,1.301 1.06,2.684 1.16,4.148l-8.308,-0c-0.25,-1.302 -0.824,-2.42 -1.722,-3.355c-0.898,-0.935 -2.071,-1.403 -3.518,-1.403c-2.345,-0 -3.967,0.956 -4.865,2.867c-0.349,0.732 -0.649,1.616 -0.898,2.653c-0.25,1.037 -0.462,2.135 -0.636,3.294c-0.175,1.159 -0.312,2.328 -0.412,3.507c-0.1,1.18 -0.175,2.278 -0.224,3.294c-0.05,0.814 -0.088,1.373 -0.113,1.678c-0.025,0.305 -0.037,0.6 -0.037,0.884l-0,1.22c-0,0.569 0.025,1.098 0.075,1.586c0.149,2.318 0.374,4.443 0.673,6.374c0.3,1.932 0.824,3.955 1.572,6.07c0.399,1.179 1.048,2.155 1.946,2.928c0.898,0.772 1.921,1.158 3.069,1.158c1.597,0 2.832,-0.406 3.705,-1.219c0.873,-0.814 1.559,-2.339 2.058,-4.575l8.159,-0Z" style="fill:#bd1622;fill-rule:nonzero;"/><path d="M1022.1,117.913c-0,0.447 -0.013,1.108 -0.037,1.983c-0.025,0.874 -0.063,1.677 -0.113,2.409c-0.149,1.749 -0.299,3.284 -0.449,4.605c-0.15,1.322 -0.324,2.491 -0.524,3.508c-0.199,1.016 -0.424,1.921 -0.673,2.714c-0.25,0.793 -0.549,1.535 -0.899,2.227c-1.048,2.073 -2.507,3.771 -4.378,5.093c-1.872,1.321 -4.429,1.982 -7.672,1.982c-3.244,0 -5.801,-0.661 -7.672,-1.982c-1.872,-1.322 -3.331,-3.02 -4.379,-5.093c-0.349,-0.651 -0.649,-1.373 -0.898,-2.166c-0.25,-0.793 -0.474,-1.708 -0.674,-2.745c-0.199,-1.037 -0.374,-2.216 -0.524,-3.538c-0.149,-1.321 -0.299,-2.856 -0.449,-4.605c-0.05,-0.691 -0.087,-1.474 -0.112,-2.348c-0.025,-0.875 -0.038,-1.536 -0.038,-1.983c0,-0.488 0.013,-1.23 0.038,-2.226c0.025,-0.997 0.087,-1.962 0.187,-2.898c0.15,-1.626 0.299,-3.08 0.449,-4.361c0.15,-1.281 0.337,-2.42 0.561,-3.416c0.225,-0.996 0.474,-1.911 0.749,-2.745c0.274,-0.833 0.611,-1.657 1.01,-2.47c0.998,-2.196 2.483,-3.914 4.454,-5.154c1.971,-1.241 4.404,-1.861 7.298,-1.861c2.894,0 5.326,0.62 7.297,1.861c1.971,1.24 3.456,2.958 4.454,5.154c0.349,0.813 0.674,1.637 0.973,2.47c0.299,0.834 0.561,1.749 0.786,2.745c0.224,0.996 0.424,2.135 0.599,3.416c0.174,1.281 0.312,2.735 0.411,4.361c0.1,0.936 0.163,1.901 0.188,2.898c0.024,0.996 0.037,1.718 0.037,2.165Zm-7.859,0.427l-0,-1.22c-0,-0.569 -0.025,-1.098 -0.075,-1.586c-0.15,-2.318 -0.337,-4.412 -0.561,-6.283c-0.225,-1.87 -0.711,-3.863 -1.46,-5.977c-0.399,-1.18 -0.998,-2.186 -1.796,-3.02c-0.799,-0.833 -1.797,-1.25 -2.994,-1.25c-1.148,-0 -2.134,0.417 -2.957,1.25c-0.823,0.834 -1.434,1.84 -1.834,3.02c-0.748,2.114 -1.235,4.107 -1.459,5.977c-0.225,1.871 -0.412,3.965 -0.562,6.283c-0.049,0.488 -0.074,1.017 -0.074,1.586l-0,1.22c-0,0.285 0.012,0.58 0.037,0.885c0.025,0.305 0.062,0.864 0.112,1.677c0.05,1.017 0.137,2.084 0.262,3.202c0.125,1.119 0.287,2.227 0.487,3.325c0.199,1.098 0.436,2.135 0.711,3.111c0.274,0.976 0.586,1.83 0.935,2.562c0.45,0.976 0.986,1.769 1.61,2.379c0.623,0.609 1.534,0.914 2.732,0.914c1.197,0 2.108,-0.305 2.732,-0.914c0.623,-0.61 1.16,-1.403 1.609,-2.379c0.349,-0.732 0.661,-1.586 0.936,-2.562c0.274,-0.976 0.511,-2.013 0.711,-3.111c0.199,-1.098 0.361,-2.206 0.486,-3.325c0.125,-1.118 0.212,-2.185 0.262,-3.202c0.05,-0.813 0.087,-1.372 0.112,-1.677c0.025,-0.305 0.038,-0.6 0.038,-0.885Z" style="fill:#bd1622;fill-rule:nonzero;"/><path d="M1056.75,142.007l-7.635,0l0,-29.34l-6.998,17.934l-6.998,-17.934l-0,29.462l-7.785,-0.122l0,-48.798l8.009,0l6.737,16.347l6.661,-16.347l8.009,0l0,48.798Z" style="fill:#bd1622;fill-rule:nonzero;"/><path d="M1092.23,142.007l-7.634,0l-0,-29.34l-6.999,17.934l-6.998,-17.934l0,29.462l-7.784,-0.122l-0,-48.798l8.009,0l6.736,16.347l6.662,-16.347l8.008,0l0,48.798Z" style="fill:#bd1622;fill-rule:nonzero;"/><path d="M1121.95,142.007l-23.653,0l0,-48.798l22.904,0l0,5.673l-15.269,-0l-0,14.09l8.832,0l0,5.673l-8.832,0l-0,17.689l16.018,0l-0,5.673Z" style="fill:#bd1622;fill-rule:nonzero;"/><path d="M1153.31,142.007l-7.814,0l-6.688,-22.752l-4.659,0l0.075,22.752l-7.71,0l0,-48.798l12.575,0c4.541,0 8.009,1.149 10.404,3.446c2.395,2.298 3.593,5.602 3.593,9.913c-0,1.464 -0.2,2.785 -0.599,3.964c-0.399,1.18 -0.886,2.217 -1.46,3.111c-0.573,0.895 -1.197,1.647 -1.871,2.257c-0.674,0.61 -1.31,1.098 -1.909,1.464c-0.099,0.082 -0.224,0.163 -0.374,0.244c-0.1,0.082 -0.199,0.153 -0.299,0.214c-0.1,0.061 -0.2,0.091 -0.3,0.091l7.036,24.094Zm-8.533,-35.744c0,-4.921 -2.16,-7.381 -6.482,-7.381l-4.146,-0l-0,14.7l4.146,0c2.16,0 3.781,-0.64 4.862,-1.921c1.08,-1.281 1.62,-3.08 1.62,-5.398Z" style="fill:#bd1622;fill-rule:nonzero;"/><path d="M1186.92,130.54c-0.798,4.392 -2.37,7.482 -4.715,9.271c-2.345,1.79 -5.414,2.684 -9.206,2.684c-2.895,0 -5.402,-0.61 -7.523,-1.83c-2.121,-1.22 -3.68,-2.928 -4.678,-5.124c-0.399,-0.772 -0.736,-1.585 -1.01,-2.439c-0.275,-0.854 -0.524,-1.79 -0.749,-2.806c-0.224,-1.017 -0.411,-2.156 -0.561,-3.416c-0.15,-1.261 -0.3,-2.725 -0.449,-4.392c-0.1,-0.935 -0.162,-1.901 -0.187,-2.897c-0.025,-0.997 -0.038,-1.739 -0.038,-2.227c0,-0.447 0.013,-1.108 0.038,-1.982c0.025,-0.875 0.062,-1.657 0.112,-2.349c0.249,-3.456 0.561,-6.221 0.935,-8.295c0.375,-2.074 0.911,-3.782 1.61,-5.124c1.048,-2.074 2.557,-3.721 4.528,-4.941c1.971,-1.22 4.578,-1.83 7.822,-1.83c1.996,0 3.805,0.285 5.426,0.854c1.622,0.569 3.019,1.342 4.192,2.318c1.173,0.976 2.096,2.115 2.769,3.416c0.674,1.301 1.061,2.684 1.161,4.148l-8.309,-0c-0.249,-1.302 -0.823,-2.42 -1.721,-3.355c-0.898,-0.935 -2.071,-1.403 -3.518,-1.403c-2.345,-0 -3.967,0.956 -4.865,2.867c-0.35,0.732 -0.649,1.616 -0.899,2.653c-0.249,1.037 -0.461,2.135 -0.636,3.294c-0.174,1.159 -0.312,2.328 -0.411,3.507c-0.1,1.18 -0.175,2.278 -0.225,3.294c-0.05,0.814 -0.087,1.373 -0.112,1.678c-0.025,0.305 -0.038,0.6 -0.038,0.884l0,1.22c0,0.569 0.025,1.098 0.075,1.586c0.15,2.318 0.374,4.443 0.674,6.374c0.299,1.932 0.823,3.955 1.572,6.07c0.399,1.179 1.048,2.155 1.946,2.928c0.898,0.772 1.921,1.158 3.069,1.158c1.596,0 2.831,-0.406 3.705,-1.219c0.873,-0.814 1.559,-2.339 2.058,-4.575l8.158,-0Z" style="fill:#bd1622;fill-rule:nonzero;"/><rect x="1191.56" y="93.209" width="8.009" height="48.798" style="fill:#bd1622;fill-rule:nonzero;"/><path d="M1235.19,142.007l-7.859,0l-3.593,-13.358l-8.533,-0l-3.817,13.358l-7.934,0l12.724,-48.798l6.587,0l12.425,48.798Zm-13.099,-20.068l-2.619,-11.285l-2.395,11.285l5.014,0Z" style="fill:#bd1622;fill-rule:nonzero;"/><path d="M1263.04,142.007l-24.101,0l-0,-48.798l7.634,0l0,43.186l16.467,0l-0,5.612Z" style="fill:#bd1622;fill-rule:nonzero;"/><path d="M987.519,188.624c-0,1.911 -0.276,3.66 -0.827,5.246c-0.55,1.586 -1.377,2.958 -2.479,4.117c-1.102,1.159 -2.505,2.054 -4.208,2.684c-1.703,0.63 -3.682,0.945 -5.936,0.945l-5.936,0l-0,22.753l-7.635,-0l0,-48.799l13.623,0c2.245,0 4.216,0.326 5.913,0.976c1.696,0.651 3.094,1.556 4.191,2.715c1.098,1.159 1.921,2.541 2.47,4.148c0.549,1.606 0.824,3.344 0.824,5.215Zm-8.309,-0c0,-2.521 -0.577,-4.382 -1.733,-5.581c-1.155,-1.2 -2.713,-1.8 -4.672,-1.8l-4.672,0l-0,14.701l4.672,-0c2.009,-0 3.579,-0.61 4.71,-1.83c1.13,-1.22 1.695,-3.05 1.695,-5.49Z" style="fill:#bd1622;fill-rule:nonzero;"/><path d="M1018.81,224.369l-7.815,-0l-6.687,-22.753l-4.66,0l0.075,22.753l-7.709,-0l-0,-48.799l12.574,0c4.541,0 8.009,1.149 10.404,3.447c2.395,2.297 3.593,5.601 3.593,9.912c0,1.464 -0.2,2.785 -0.599,3.965c-0.399,1.179 -0.885,2.216 -1.459,3.111c-0.574,0.894 -1.198,1.647 -1.872,2.257c-0.673,0.61 -1.309,1.098 -1.908,1.464c-0.1,0.081 -0.225,0.162 -0.374,0.244c-0.1,0.081 -0.2,0.152 -0.3,0.213c-0.1,0.061 -0.199,0.091 -0.299,0.091l7.036,24.095Zm-8.533,-35.745c-0,-4.921 -2.161,-7.381 -6.483,-7.381l-4.146,0l0,14.701l4.146,-0c2.161,-0 3.781,-0.641 4.862,-1.922c1.08,-1.281 1.621,-3.08 1.621,-5.398Z" style="fill:#bd1622;fill-rule:nonzero;"/><path d="M1052.79,200.274c0,0.448 -0.012,1.109 -0.037,1.983c-0.025,0.874 -0.063,1.677 -0.113,2.409c-0.149,1.749 -0.299,3.284 -0.449,4.606c-0.149,1.321 -0.324,2.49 -0.524,3.507c-0.199,1.017 -0.424,1.921 -0.673,2.714c-0.25,0.793 -0.549,1.536 -0.899,2.227c-1.047,2.074 -2.507,3.772 -4.378,5.093c-1.871,1.322 -4.429,1.983 -7.672,1.983c-3.244,-0 -5.801,-0.661 -7.672,-1.983c-1.871,-1.321 -3.331,-3.019 -4.379,-5.093c-0.349,-0.651 -0.649,-1.373 -0.898,-2.166c-0.25,-0.793 -0.474,-1.708 -0.674,-2.744c-0.199,-1.037 -0.374,-2.217 -0.524,-3.538c-0.149,-1.322 -0.299,-2.857 -0.449,-4.606c-0.05,-0.691 -0.087,-1.474 -0.112,-2.348c-0.025,-0.874 -0.037,-1.535 -0.037,-1.983c-0,-0.487 0.012,-1.23 0.037,-2.226c0.025,-0.996 0.087,-1.962 0.187,-2.897c0.15,-1.627 0.299,-3.081 0.449,-4.362c0.15,-1.281 0.337,-2.419 0.562,-3.416c0.224,-0.996 0.474,-1.911 0.748,-2.744c0.274,-0.834 0.611,-1.658 1.01,-2.471c0.998,-2.196 2.483,-3.914 4.454,-5.154c1.971,-1.24 4.404,-1.861 7.298,-1.861c2.894,0 5.327,0.621 7.298,1.861c1.971,1.24 3.455,2.958 4.453,5.154c0.349,0.813 0.674,1.637 0.973,2.471c0.299,0.833 0.561,1.748 0.786,2.744c0.225,0.997 0.424,2.135 0.599,3.416c0.174,1.281 0.312,2.735 0.411,4.362c0.1,0.935 0.163,1.901 0.188,2.897c0.025,0.996 0.037,1.718 0.037,2.165Zm-7.859,0.427l-0,-1.219c-0,-0.57 -0.025,-1.098 -0.075,-1.586c-0.15,-2.318 -0.337,-4.413 -0.561,-6.283c-0.225,-1.871 -0.711,-3.863 -1.46,-5.978c-0.399,-1.179 -0.998,-2.186 -1.796,-3.019c-0.799,-0.834 -1.797,-1.251 -2.994,-1.251c-1.148,0 -2.133,0.417 -2.957,1.251c-0.823,0.833 -1.434,1.84 -1.834,3.019c-0.748,2.115 -1.235,4.107 -1.459,5.978c-0.225,1.87 -0.412,3.965 -0.561,6.283c-0.05,0.488 -0.075,1.016 -0.075,1.586l-0,1.219c-0,0.285 0.012,0.58 0.037,0.885c0.025,0.305 0.062,0.864 0.112,1.677c0.05,1.017 0.138,2.084 0.262,3.203c0.125,1.118 0.287,2.226 0.487,3.324c0.199,1.098 0.436,2.135 0.711,3.111c0.274,0.976 0.586,1.83 0.936,2.562c0.449,0.976 0.985,1.769 1.609,2.379c0.624,0.61 1.534,0.915 2.732,0.915c1.197,-0 2.108,-0.305 2.732,-0.915c0.624,-0.61 1.16,-1.403 1.609,-2.379c0.349,-0.732 0.661,-1.586 0.936,-2.562c0.274,-0.976 0.511,-2.013 0.711,-3.111c0.199,-1.098 0.361,-2.206 0.486,-3.324c0.125,-1.119 0.212,-2.186 0.262,-3.203c0.05,-0.813 0.088,-1.372 0.112,-1.677c0.025,-0.305 0.038,-0.6 0.038,-0.885Z" style="fill:#bd1622;fill-rule:nonzero;"/><path d="M1085.05,188.624c-0,1.911 -0.275,3.66 -0.826,5.246c-0.551,1.586 -1.378,2.958 -2.48,4.117c-1.102,1.159 -2.504,2.054 -4.208,2.684c-1.703,0.63 -3.681,0.945 -5.935,0.945l-5.937,0l0,22.753l-7.635,-0l0,-48.799l13.623,0c2.245,0 4.216,0.326 5.913,0.976c1.697,0.651 3.094,1.556 4.192,2.715c1.097,1.159 1.921,2.541 2.47,4.148c0.549,1.606 0.823,3.344 0.823,5.215Zm-8.308,-0c-0,-2.521 -0.578,-4.382 -1.734,-5.581c-1.155,-1.2 -2.712,-1.8 -4.672,-1.8l-4.672,0l0,14.701l4.672,-0c2.009,-0 3.579,-0.61 4.71,-1.83c1.13,-1.22 1.696,-3.05 1.696,-5.49Z" style="fill:#bd1622;fill-rule:nonzero;"/><path d="M1113.19,224.369l-23.652,-0l-0,-48.799l22.904,0l-0,5.673l-15.27,0l0,14.091l8.833,-0l-0,5.672l-8.833,0l0,17.69l16.018,-0l0,5.673Z" style="fill:#bd1622;fill-rule:nonzero;"/><path d="M1144.55,224.369l-7.815,-0l-6.687,-22.753l-4.659,0l0.074,22.753l-7.709,-0l-0,-48.799l12.575,0c4.54,0 8.008,1.149 10.404,3.447c2.395,2.297 3.592,5.601 3.592,9.912c0,1.464 -0.199,2.785 -0.598,3.965c-0.4,1.179 -0.886,2.216 -1.46,3.111c-0.574,0.894 -1.198,1.647 -1.871,2.257c-0.674,0.61 -1.31,1.098 -1.909,1.464c-0.1,0.081 -0.224,0.162 -0.374,0.244c-0.1,0.081 -0.2,0.152 -0.3,0.213c-0.099,0.061 -0.199,0.091 -0.299,0.091l7.036,24.095Zm-8.533,-35.745c0,-4.921 -2.161,-7.381 -6.483,-7.381l-4.145,0l-0,14.701l4.145,-0c2.161,-0 3.782,-0.641 4.862,-1.922c1.081,-1.281 1.621,-3.08 1.621,-5.398Z" style="fill:#bd1622;fill-rule:nonzero;"/><path d="M1172.47,181.243l-8.234,0l0,43.126l-8.009,-0l0,-43.126l-9.056,0l-0,-5.673l25.299,0l-0,5.673Z" style="fill:#bd1622;fill-rule:nonzero;"/><path d="M1206.75,175.57l-12.275,27.144l0,21.655l-7.934,-0l0,-21.533l-12.2,-27.266l8.233,0l7.859,18.361l8.009,-18.361l8.308,0Z" style="fill:#bd1622;fill-rule:nonzero;"/><path d="M987.294,306.73l-7.815,-0l-6.687,-22.752l-4.659,-0l0.075,22.752l-7.71,-0l0,-48.798l12.575,-0c4.541,-0 8.009,1.149 10.404,3.446c2.395,2.298 3.593,5.602 3.593,9.912c-0,1.464 -0.2,2.786 -0.599,3.965c-0.399,1.179 -0.886,2.216 -1.46,3.111c-0.574,0.895 -1.197,1.647 -1.871,2.257c-0.674,0.61 -1.31,1.098 -1.909,1.464c-0.099,0.081 -0.224,0.162 -0.374,0.244c-0.1,0.081 -0.199,0.152 -0.299,0.213c-0.1,0.061 -0.2,0.092 -0.3,0.092l7.036,24.094Zm-8.533,-35.745c0,-4.92 -2.161,-7.38 -6.482,-7.38l-4.146,-0l-0,14.7l4.146,-0c2.16,-0 3.781,-0.64 4.861,-1.921c1.081,-1.281 1.621,-3.081 1.621,-5.399Z" style="fill-rule:nonzero;"/><path d="M1021.28,282.636c-0,0.447 -0.013,1.108 -0.038,1.982c-0.025,0.875 -0.062,1.678 -0.112,2.41c-0.15,1.748 -0.3,3.283 -0.449,4.605c-0.15,1.322 -0.325,2.491 -0.524,3.507c-0.2,1.017 -0.424,1.922 -0.674,2.715c-0.249,0.793 -0.549,1.535 -0.898,2.226c-1.048,2.074 -2.507,3.772 -4.379,5.093c-1.871,1.322 -4.428,1.983 -7.672,1.983c-3.243,-0 -5.8,-0.661 -7.672,-1.983c-1.871,-1.321 -3.33,-3.019 -4.378,-5.093c-0.35,-0.65 -0.649,-1.372 -0.899,-2.165c-0.249,-0.793 -0.474,-1.708 -0.673,-2.745c-0.2,-1.037 -0.374,-2.216 -0.524,-3.538c-0.15,-1.322 -0.3,-2.857 -0.449,-4.605c-0.05,-0.692 -0.088,-1.474 -0.112,-2.349c-0.025,-0.874 -0.038,-1.535 -0.038,-1.982c0,-0.488 0.013,-1.23 0.038,-2.227c0.024,-0.996 0.087,-1.962 0.187,-2.897c0.149,-1.627 0.299,-3.08 0.449,-4.361c0.149,-1.281 0.337,-2.42 0.561,-3.416c0.225,-0.996 0.474,-1.911 0.749,-2.745c0.274,-0.834 0.611,-1.657 1.01,-2.471c0.998,-2.195 2.483,-3.914 4.454,-5.154c1.971,-1.24 4.403,-1.86 7.297,-1.86c2.894,-0 5.327,0.62 7.298,1.86c1.971,1.24 3.456,2.959 4.454,5.154c0.349,0.814 0.673,1.637 0.973,2.471c0.299,0.834 0.561,1.749 0.786,2.745c0.224,0.996 0.424,2.135 0.598,3.416c0.175,1.281 0.312,2.734 0.412,4.361c0.1,0.935 0.162,1.901 0.187,2.897c0.025,0.997 0.038,1.718 0.038,2.166Zm-7.86,0.427l0,-1.22c0,-0.569 -0.025,-1.098 -0.074,-1.586c-0.15,-2.318 -0.337,-4.412 -0.562,-6.283c-0.224,-1.87 -0.711,-3.863 -1.459,-5.978c-0.4,-1.179 -0.998,-2.185 -1.797,-3.019c-0.798,-0.834 -1.796,-1.25 -2.994,-1.25c-1.147,-0 -2.133,0.416 -2.956,1.25c-0.824,0.834 -1.435,1.84 -1.834,3.019c-0.748,2.115 -1.235,4.108 -1.46,5.978c-0.224,1.871 -0.411,3.965 -0.561,6.283c-0.05,0.488 -0.075,1.017 -0.075,1.586l0,1.22c0,0.284 0.013,0.579 0.038,0.884c0.025,0.305 0.062,0.864 0.112,1.678c0.05,1.016 0.137,2.084 0.262,3.202c0.125,1.118 0.287,2.226 0.486,3.324c0.2,1.098 0.437,2.135 0.711,3.111c0.275,0.976 0.587,1.83 0.936,2.562c0.449,0.976 0.986,1.769 1.609,2.379c0.624,0.61 1.535,0.915 2.732,0.915c1.198,0 2.109,-0.305 2.732,-0.915c0.624,-0.61 1.16,-1.403 1.61,-2.379c0.349,-0.732 0.661,-1.586 0.935,-2.562c0.275,-0.976 0.512,-2.013 0.711,-3.111c0.2,-1.098 0.362,-2.206 0.487,-3.324c0.125,-1.118 0.212,-2.186 0.262,-3.202c0.05,-0.814 0.087,-1.373 0.112,-1.678c0.025,-0.305 0.037,-0.6 0.037,-0.884Z" style="fill-rule:nonzero;"/><path d="M1047.7,263.605l-8.233,-0l-0,43.125l-8.009,-0l0,-43.125l-9.057,-0l0,-5.673l25.299,-0l0,5.673Z" style="fill-rule:nonzero;"/><path d="M1077.71,306.73l-7.635,-0l0,-23.362l-10.628,-0l-0,23.362l-7.635,-0l-0,-48.798l7.635,-0l-0,19.763l10.628,0l0,-19.763l7.635,-0l-0,48.798Z" style="fill-rule:nonzero;"/><path d="M1107.43,306.73l-23.652,-0l-0,-48.798l22.903,-0l0,5.673l-15.269,-0l0,14.09l8.832,0l0,5.673l-8.832,-0l0,17.689l16.018,0l-0,5.673Z" style="fill-rule:nonzero;"/><path d="M1138.79,306.73l-7.815,-0l-6.687,-22.752l-4.66,-0l0.075,22.752l-7.709,-0l-0,-48.798l12.574,-0c4.541,-0 8.009,1.149 10.404,3.446c2.395,2.298 3.593,5.602 3.593,9.912c-0,1.464 -0.2,2.786 -0.599,3.965c-0.399,1.179 -0.886,2.216 -1.459,3.111c-0.574,0.895 -1.198,1.647 -1.872,2.257c-0.673,0.61 -1.309,1.098 -1.908,1.464c-0.1,0.081 -0.225,0.162 -0.374,0.244c-0.1,0.081 -0.2,0.152 -0.3,0.213c-0.1,0.061 -0.199,0.092 -0.299,0.092l7.036,24.094Zm-8.533,-35.745c-0,-4.92 -2.161,-7.38 -6.483,-7.38l-4.146,-0l0,14.7l4.146,-0c2.161,-0 3.781,-0.64 4.862,-1.921c1.08,-1.281 1.621,-3.081 1.621,-5.399Z" style="fill-rule:nonzero;"/><path d="M1169.93,306.73l-7.635,-0l0,-23.362l-10.628,-0l-0,23.362l-7.635,-0l-0,-48.798l7.635,-0l-0,19.763l10.628,0l0,-19.763l7.635,-0l-0,48.798Z" style="fill-rule:nonzero;"/><path d="M1205.48,306.73l-7.859,-0l-3.593,-13.359l-8.533,0l-3.817,13.359l-7.934,-0l12.724,-48.798l6.587,-0l12.425,48.798Zm-13.099,-20.068l-2.619,-11.285l-2.395,11.285l5.014,-0Z" style="fill-rule:nonzero;"/><path d="M1238.64,306.73l-7.634,-0l-0,-29.34l-6.999,17.933l-6.998,-17.933l-0,29.462l-7.785,-0.122l0,-48.798l8.009,-0l6.737,16.347l6.661,-16.347l8.009,-0l0,48.798Z" style="fill-rule:nonzero;"/></g></g></svg>